#!OML:ASF E:\Style4\Style4.ASF
:FULLY-SPECIFIED
:DEGREES
1864
root 0.198887 18.173 -0.61997 5.86011 -1.49325 2.3219
lowerback 7.88707 1.98637 -1.01399
upperback 2.08827 2.52014 -1.33186
thorax -2.24233 1.25725 -1.04733
lowerneck 1.37073 -17.8598 -6.38044
upperneck 7.00483 -24.7993 11.7205
head 4.15417 -12.1721 3.24181
rclavicle -9.31182e-015 2.16924e-014
rhumerus 88.4126 -8.86018 -1141.86
rradius 23.2676
rwrist 1106.88
rhand -0.33459 10.1591
rfingers 7.12502
rthumb 25.2699 -18.1874
lclavicle -9.31182e-015 2.16924e-014
lhumerus 79.5781 28.306 42.7042
lradius 122.277
lwrist 43.3215
lhand -2.82521 25.3514
lfingers 7.12502
lthumb 22.8817 54.0138
rfemur -13.8305 -0.971603 16.0297
rtibia 22.1109
rfoot -12.9206 -19.2328
rtoes -9.91128
lfemur -11.2475 -0.141138 -21.6179
ltibia 17.9341
lfoot -13.803 13.3139
ltoes -12.3643
1865
root 0.202232 18.1756 -0.617691 5.89207 -1.39312 2.2321
lowerback 7.96838 1.97868 -0.85394
upperback 2.03857 2.5217 -1.28763
thorax -2.33386 1.25737 -1.09589
lowerneck 1.56329 -17.9735 -6.47444
upperneck 6.52848 -24.9378 12.0294
head 4.04221 -12.2589 3.36053
rclavicle -3.78933e-015 4.52235e-015
rhumerus 88.5742 -9.20048 -1141.46
rradius 24.1062
rwrist 1106.71
rhand -3.3338 10.8579
rfingers 7.12502
rthumb 22.3936 -17.8641
lclavicle -3.78933e-015 4.52235e-015
lhumerus 79.6906 28.2477 42.9715
lradius 122.468
lwrist 42.8541
lhand -3.09195 25.0647
lfingers 7.12502
lthumb 22.6257 53.7586
rfemur -13.7537 -0.89184 16.1122
rtibia 21.9606
rfoot -12.9465 -19.339
rtoes -9.35385
lfemur -11.2286 -0.201353 -21.524
ltibia 17.8273
lfoot -13.6693 13.2512
ltoes -12.0509
1866
root 0.206645 18.178 -0.614701 5.95765 -1.31696 2.19515
lowerback 7.98716 1.97766 -0.744919
upperback 1.99056 2.52909 -1.25795
thorax -2.39042 1.26053 -1.12897
lowerneck 1.76289 -18.0728 -6.55109
upperneck 6.12514 -25.0587 12.2919
head 3.94247 -12.3361 3.46433
rclavicle -2.74199e-014 -1.39149e-015
rhumerus 88.7165 -9.47536 -1141.06
rradius 24.9026
rwrist 1106.38
rhand -6.30257 11.4097
rfingers 7.12502
rthumb 19.5415 -17.6282
lclavicle -2.74199e-014 -1.39149e-015
lhumerus 79.7595 28.1899 43.2432
lradius 122.756
lwrist 42.4954
lhand -3.31654 25.1647
lfingers 7.12502
lthumb 22.4101 53.8847
rfemur -13.7439 -0.836289 16.1376
rtibia 21.8577
rfoot -13.0113 -19.4188
rtoes -8.82531
lfemur -11.2554 -0.26106 -21.4958
ltibia 17.7538
lfoot -13.5783 13.2166
ltoes -11.7997
1867
root 0.211947 18.1802 -0.613602 6.02148 -1.25631 2.25209
lowerback 8.02281 1.97488 -0.73305
upperback 1.91212 2.52461 -1.26427
thorax -2.49046 1.25799 -1.14508
lowerneck 1.99444 -18.1499 -6.31565
upperneck 5.72555 -25.1145 12.2323
head 3.75356 -12.3851 3.46288
rclavicle -1.14301e-014 1.43125e-014
rhumerus 88.7282 -9.70523 -1140.62
rradius 25.6851
rwrist 1106.21
rhand -9.61192 12.1674
rfingers 7.12502
rthumb 16.3573 -17.1628
lclavicle -1.14301e-014 1.43125e-014
lhumerus 79.7758 28.1136 43.444
lradius 123.089
lwrist 42.2506
lhand -3.50273 25.6694
lfingers 7.12502
lthumb 22.2314 54.4108
rfemur -13.7569 -0.809907 16.0578
rtibia 21.7804
rfoot -13.0035 -19.4969
rtoes -8.61127
lfemur -11.3218 -0.309153 -21.5767
ltibia 17.735
lfoot -13.6034 13.24
ltoes -11.9018
1868
root 0.216978 18.1825 -0.615292 6.03052 -1.20036 2.28625
lowerback 8.10918 1.97772 -0.723609
upperback 1.90418 2.52853 -1.2321
thorax -2.54759 1.25973 -1.12124
lowerneck 2.06804 -18.2604 -6.10648
upperneck 5.4253 -25.2192 12.136
head 3.62274 -12.4494 3.42987
rclavicle 3.1731e-014 -1.09332e-014
rhumerus 88.7307 -9.98181 -1140.04
rradius 26.6229
rwrist 1105.92
rhand -12.4116 12.9056
rfingers 7.12502
rthumb 13.6604 -16.6261
lclavicle 3.1731e-014 -1.09332e-014
lhumerus 79.7414 28.0924 43.5868
lradius 123.355
lwrist 42.0033
lhand -3.8949 25.8282
lfingers 7.12502
lthumb 21.8549 54.614
rfemur -13.7401 -0.845408 16.008
rtibia 21.7349
rfoot -12.9325 -19.5341
rtoes -8.77435
lfemur -11.3595 -0.382794 -21.6248
ltibia 17.7535
lfoot -13.6401 13.279
ltoes -12.0257
1869
root 0.221888 18.1814 -0.618877 6.04032 -1.1188 2.28968
lowerback 8.18749 1.97538 -0.6809
upperback 1.96068 2.53041 -1.16213
thorax -2.53397 1.26051 -1.07488
lowerneck 2.14577 -18.4074 -6.23673
upperneck 5.07642 -25.3969 12.3029
head 3.55871 -12.5514 3.49463
rclavicle -6.55989e-015 4.47266e-015
rhumerus 88.801 -10.2554 -1139.5
rradius 27.6277
rwrist 1105.44
rhand -14.3912 13.8439
rfingers 7.12502
rthumb 11.7519 -15.8064
lclavicle -6.55989e-015 4.47266e-015
lhumerus 79.7602 28.1613 43.8071
lradius 123.632
lwrist 41.9836
lhand -4.26752 25.916
lfingers 7.12502
lthumb 21.497 54.7431
rfemur -13.7488 -0.879772 15.9913
rtibia 21.7393
rfoot -12.8872 -19.5917
rtoes -8.87936
lfemur -11.4162 -0.478514 -21.6352
ltibia 17.8011
lfoot -13.664 13.2516
ltoes -11.6725
1870
root 0.225932 18.1794 -0.623852 6.02715 -1.05222 2.22977
lowerback 8.30164 1.96619 -0.583444
upperback 2.00579 2.5272 -1.0929
thorax -2.54962 1.25839 -1.0611
lowerneck 2.47723 -18.5594 -6.3611
upperneck 4.56051 -25.5714 12.5126
head 3.40963 -12.6673 3.6049
rclavicle -1.49834e-014 9.74045e-015
rhumerus 88.8516 -10.4013 -1139.23
rradius 28.6441
rwrist 1104.96
rhand -16.6301 14.8813
rfingers 7.12502
rthumb 9.59223 -14.8803
lclavicle -1.49834e-014 9.74045e-015
lhumerus 79.7089 28.1768 43.9514
lradius 123.915
lwrist 41.8421
lhand -4.47552 26.1594
lfingers 7.12502
lthumb 21.2973 55.0092
rfemur -13.7514 -0.842918 16.0414
rtibia 21.7751
rfoot -12.9278 -19.6316
rtoes -8.70178
lfemur -11.4845 -0.475208 -21.58
ltibia 17.9146
lfoot -13.6387 13.1372
ltoes -11.626
1871
root 0.229125 18.1769 -0.63199 6.03213 -0.99301 2.27153
lowerback 8.40348 1.96184 -0.574474
upperback 2.056 2.52144 -1.08529
thorax -2.55419 1.25544 -1.06044
lowerneck 2.69314 -18.6645 -6.33606
upperneck 4.19839 -25.688 12.6571
head 3.29356 -12.7439 3.66983
rclavicle -8.82107e-015 6.75868e-015
rhumerus 88.8066 -10.5608 -1138.95
rradius 29.7667
rwrist 1104.32
rhand -19.0629 15.955
rfingers 7.12502
rthumb 7.24447 -13.901
lclavicle -8.82107e-015 6.75868e-015
lhumerus 79.648 28.111 43.9703
lradius 124.124
lwrist 41.489
lhand -4.60638 26.3031
lfingers 7.12502
lthumb 21.1716 55.167
rfemur -13.8281 -0.832829 15.9892
rtibia 21.8622
rfoot -12.9488 -19.6999
rtoes -8.67556
lfemur -11.6249 -0.471435 -21.6348
ltibia 18.0755
lfoot -13.5852 13.0756
ltoes -11.8944
1872
root 0.234121 18.1744 -0.640153 6.04498 -0.923812 2.2734
lowerback 8.47015 1.95931 -0.516137
upperback 2.12212 2.52409 -1.0425
thorax -2.52218 1.25662 -1.05022
lowerneck 2.77491 -18.7368 -6.34512
upperneck 4.07644 -25.7785 12.7354
head 3.26417 -12.7949 3.69723
rclavicle 2.67862e-014 -1.2921e-014
rhumerus 88.743 -10.681 -1138.64
rradius 30.9075
rwrist 1103.66
rhand -21.3981 17.0423
rfingers 7.12502
rthumb 4.98994 -12.8789
lclavicle 2.67862e-014 -1.2921e-014
lhumerus 79.6029 28.0826 44.0526
lradius 124.341
lwrist 41.1693
lhand -4.60241 26.6613
lfingers 7.12502
lthumb 21.1754 55.5249
rfemur -13.9447 -0.897165 15.9753
rtibia 22.0111
rfoot -12.9802 -19.7268
rtoes -8.67616
lfemur -11.7942 -0.523361 -21.6481
ltibia 18.2698
lfoot -13.6184 13.0573
ltoes -11.9991
1873
root 0.240826 18.1714 -0.649061 6.0669 -0.882355 2.26242
lowerback 8.53658 1.96344 -0.44847
upperback 2.18597 2.53658 -0.992624
thorax -2.49214 1.26265 -1.039
lowerneck 2.90433 -18.8084 -6.34882
upperneck 3.9603 -25.8662 12.7778
head 3.22346 -12.8467 3.72001
rclavicle 3.47873e-016 -4.77083e-015
rhumerus 88.6894 -10.717 -1138.5
rradius 32.0458
rwrist 1103.13
rhand -23.5023 18.2951
rfingers 7.12502
rthumb 2.95802 -11.6642
lclavicle 3.47873e-016 -4.77083e-015
lhumerus 79.5304 28.0357 44.0881
lradius 124.507
lwrist 40.8804
lhand -4.55306 27.013
lfingers 7.12502
lthumb 21.2228 55.8712
rfemur -14.1219 -1.00997 15.9643
rtibia 22.2408
rfoot -13.0716 -19.6535
rtoes -8.43804
lfemur -11.9827 -0.581699 -21.6563
ltibia 18.4824
lfoot -13.7292 13.1185
ltoes -12.3514
1874
root 0.246359 18.1668 -0.659902 6.07034 -0.855656 2.31903
lowerback 8.65868 1.96661 -0.456241
upperback 2.24331 2.53987 -0.963971
thorax -2.50204 1.26424 -1.00884
lowerneck 3.03312 -18.8715 -6.29511
upperneck 3.86475 -25.9359 12.7339
head 3.16873 -12.8894 3.71612
rclavicle -5.07398e-014 1.74931e-014
rhumerus 88.5672 -10.6759 -1138.48
rradius 33.3097
rwrist 1102.81
rhand -25.4971 19.5329
rfingers 7.12502
rthumb 1.03147 -10.4443
lclavicle -5.07398e-014 1.74931e-014
lhumerus 79.3948 27.9662 43.9894
lradius 124.571
lwrist 40.7056
lhand -4.72306 27.0456
lfingers 7.12502
lthumb 21.0595 55.9221
rfemur -14.3198 -1.12235 15.8883
rtibia 22.5258
rfoot -13.0989 -19.6172
rtoes -8.88362
lfemur -12.1871 -0.560705 -21.7396
ltibia 18.7645
lfoot -13.8641 13.0885
ltoes -12.4334
1875
root 0.249978 18.1602 -0.67488 6.06206 -0.834034 2.36344
lowerback 8.84389 1.96528 -0.487687
upperback 2.28883 2.53481 -0.913388
thorax -2.56116 1.26156 -0.944674
lowerneck 3.11988 -18.927 -6.22439
upperneck 3.88494 -26.0002 12.6124
head 3.14244 -12.9244 3.68107
rclavicle -1.29707e-014 -2.38542e-015
rhumerus 88.3428 -10.5994 -1138.29
rradius 34.7392
rwrist 1102.3
rhand -27.4917 20.8461
rfingers 7.12502
rthumb -0.894969 -9.13173
lclavicle -1.29707e-014 -2.38542e-015
lhumerus 79.1765 27.8942 43.7771
lradius 124.587
lwrist 40.5358
lhand -5.19904 26.8081
lfingers 7.12502
lthumb 20.6022 55.7348
rfemur -14.5499 -1.1751 15.8308
rtibia 22.8551
rfoot -13.218 -19.5732
rtoes -8.98087
lfemur -12.4336 -0.517156 -21.7955
ltibia 19.1212
lfoot -14.0422 12.9191
ltoes -11.6769
